<svg width="78" height="45" viewBox="0 0 78 45" fill="none" xmlns="http://www.w3.org/2000/svg">
<g clip-path="url(#clip0_113_231)">
<path d="M73.7048 0H59.641L59.5183 0.121589L59.3955 0.243178L59.2728 0.364766L59.1501 0.486355L59.0274 0.607944L58.9047 0.729533L58.7819 0.851121L58.6592 0.97271L58.5365 1.0943L58.4138 1.21589L58.2911 1.33748L58.1683 1.45907L58.0456 1.58065L57.9229 1.70224L57.8002 1.82383L57.6775 1.94542L57.5547 2.06701L57.432 2.1886L57.3093 2.31019L57.1866 2.43178L57.0639 2.55336L56.9411 2.67495L56.8184 2.79654L56.6957 2.91813L56.573 3.03972L56.4503 3.16131L56.3275 3.2829L56.2048 3.40449L56.0821 3.52607L55.9594 3.64766L55.9041 3.70238L52.1685 0H38.1048L37.982 0.121589L37.8593 0.243178L37.7366 0.364766L37.6139 0.486355L37.4911 0.607944L37.3684 0.729533L37.2457 0.851121L37.123 0.97271L37.0003 1.0943L36.8775 1.21589L36.7548 1.33748L36.6321 1.45907L36.5094 1.58065L36.3867 1.70224L36.2639 1.82383L36.1412 1.94542L36.0185 2.06701L35.8958 2.1886L35.7731 2.31019L35.6503 2.43178L35.5276 2.55336L35.4049 2.67495L35.2822 2.79654L35.1595 2.91813L35.0367 3.03972L34.914 3.16131L34.7913 3.2829L34.6686 3.40449L34.5459 3.52607L34.4231 3.64766L34.3679 3.70238L30.6311 0H16.5673L16.4446 0.121589L16.3218 0.243178L16.1991 0.364766L16.0764 0.486355L15.9537 0.607944L15.831 0.729533L15.7082 0.851121L15.5855 0.97271L15.4628 1.0943L15.3401 1.21589L15.2174 1.33748L15.0946 1.45907L14.9719 1.58065L14.8492 1.70224L14.7265 1.82383L14.6038 1.94542L14.481 2.06701L14.3583 2.1886L14.2356 2.31019L14.1129 2.43178L13.9902 2.55336L13.8674 2.67495L13.7447 2.79654L13.622 2.91813L13.4993 3.03972L13.3765 3.16131L13.2538 3.2829L13.1311 3.40449L13.0084 3.52607L12.8857 3.64766L12.7629 3.76925L12.6402 3.89084L12.5175 4.01243L12.3948 4.13402L12.2721 4.25561L12.1493 4.3772L12.0266 4.49878L11.9039 4.62037L11.7812 4.74196L11.6585 4.86355L11.5357 4.98514L11.413 5.10673L11.2903 5.22832L11.1676 5.34991L11.0449 5.47149L10.9221 5.59308L10.7994 5.71467L10.6767 5.83626L10.554 5.95785L10.4313 6.07944L10.3085 6.20103L10.1858 6.32262L10.0631 6.4442L9.94037 6.56579L9.81765 6.68738L9.69493 6.80897L9.57221 6.93056L9.44949 7.05215L9.32677 7.17374L9.20405 7.29533L9.08133 7.41691L8.9586 7.5385L8.83588 7.66009L8.71316 7.78168L8.59044 7.90327L8.46772 8.02486L8.345 8.14645L8.22228 8.26804L8.09956 8.38962L7.97684 8.51121L7.85412 8.6328L7.7314 8.75439L7.60868 8.87598L7.48596 8.99757L7.36324 9.11916L7.24052 9.24075L7.1178 9.36233L6.99508 9.48392L6.87235 9.60551L6.74963 9.7271L6.62691 9.84869L6.50419 9.97028L6.38147 10.0919L6.25875 10.2135L6.13603 10.335L6.01331 10.4566L5.89059 10.5782L5.76787 10.6998L5.64515 10.8214L5.52243 10.943L5.39971 11.0646L5.27699 11.1862L5.15427 11.3078L5.03155 11.4293L4.90882 11.5509L4.7861 11.6725L4.66338 11.7941L4.54066 11.9157L4.41794 12.0373L4.29522 12.1589L4.1725 12.2805L4.04978 12.4021L3.92706 12.5236L3.80434 12.6452L3.68162 12.7668L3.5589 12.8884L3.43618 13.01L3.31346 13.1316L3.19074 13.2532L3.06802 13.3748L2.94529 13.4964L2.82257 13.6179L2.69985 13.7395L2.57713 13.8611L2.45441 13.9827L2.33169 14.1043L2.20897 14.2259L2.08625 14.3475L1.96353 14.4691L1.84081 14.5907L1.71809 14.7122L1.59537 14.8338L1.47265 14.9554L1.34993 15.077L1.22721 15.1986L1.10449 15.3202L0.981765 15.4418L0.859044 15.5634L0.736324 15.6849L0.613603 15.8065L0.490882 15.9281L0.368162 16.0497L0.245441 16.1713L0.122721 16.2929L0 16.4145V40.7444L4.29522 45H10.6644L10.7871 44.8784L10.9099 44.7568L11.0326 44.6352L11.1553 44.5136L11.278 44.3921L11.4007 44.2705L11.5235 44.1489L11.6462 44.0273L11.7689 43.9057L11.8916 43.7841L12.0143 43.6625L12.1371 43.5409L12.2598 43.4193L12.3825 43.2978L12.5052 43.1762L12.628 43.0546L12.7507 42.933L12.8734 42.8114L12.9961 42.6898L13.1188 42.5682L13.2416 42.4466L13.3643 42.325L13.487 42.2035L13.6097 42.0819L13.7324 41.9603L13.8552 41.8387L13.9779 41.7171L14.1006 41.5955L14.2233 41.4739L14.346 41.3523L14.4688 41.2307L14.5915 41.1092L14.7142 40.9876L14.8369 40.866L14.9596 40.7444L15.0824 40.6228L15.2051 40.5012L15.3278 40.3796L15.4505 40.258L15.5732 40.1365L15.696 40.0149L15.8187 39.8933L15.9414 39.7717L16.0641 39.6501L16.1868 39.5285L16.3096 39.4069L16.4323 39.2853L16.555 39.1637L16.6777 39.0422L16.8005 38.9206L16.9232 38.799L17.0459 38.6774L17.1686 38.5558L17.2913 38.4342L17.4141 38.3126L17.5368 38.191L17.6595 38.0694L17.7822 37.9479L17.9049 37.8263L18.0277 37.7047L18.1504 37.5831L18.2731 37.4615L18.3958 37.3399L18.5185 37.2183L18.6413 37.0967L18.764 36.9751L18.8867 36.8536L19.0094 36.732L19.1321 36.6104L19.2549 36.4888L19.3776 36.3672L19.5003 36.2456L19.623 36.124L19.7457 36.0024L19.8685 35.8808L19.9912 35.7593L20.1139 35.6377L20.2366 35.5161L20.3593 35.3945L20.4821 35.2729L20.6048 35.1513L20.7275 35.0297L20.8502 34.9081L20.973 34.7865L21.0957 34.665L21.2184 34.5434L21.3411 34.4218L21.4638 34.3002L21.5362 34.2285V40.7444L25.8315 45H32.2007L32.3234 44.8784L32.4461 44.7568L32.5688 44.6352L32.6915 44.5136L32.8143 44.3921L32.937 44.2705L33.0597 44.1489L33.1824 44.0273L33.3051 43.9057L33.4279 43.7841L33.5506 43.6625L33.6733 43.5409L33.796 43.4193L33.9188 43.2978L34.0415 43.1762L34.1642 43.0546L34.2869 42.933L34.4096 42.8114L34.5324 42.6898L34.6551 42.5682L34.7778 42.4466L34.9005 42.325L35.0232 42.2035L35.146 42.0819L35.2687 41.9603L35.3914 41.8387L35.5141 41.7171L35.6368 41.5955L35.7596 41.4739L35.8823 41.3523L36.005 41.2307L36.1277 41.1092L36.2504 40.9876L36.3732 40.866L36.4959 40.7444L36.6186 40.6228L36.7413 40.5012L36.864 40.3796L36.9868 40.258L37.1095 40.1365L37.2322 40.0149L37.3549 39.8933L37.4776 39.7717L37.6004 39.6501L37.7231 39.5285L37.8458 39.4069L37.9685 39.2853L38.0913 39.1637L38.214 39.0422L38.3367 38.9206L38.4594 38.799L38.5821 38.6774L38.7049 38.5558L38.8276 38.4342L38.9503 38.3126L39.073 38.191L39.1957 38.0694L39.3185 37.9479L39.4412 37.8263L39.5639 37.7047L39.6866 37.5831L39.8093 37.4615L39.9321 37.3399L40.0548 37.2183L40.1775 37.0967L40.3002 36.9751L40.4229 36.8536L40.5457 36.732L40.6684 36.6104L40.7911 36.4888L40.9138 36.3672L41.0365 36.2456L41.1593 36.124L41.282 36.0024L41.4047 35.8808L41.5274 35.7593L41.6502 35.6377L41.7729 35.5161L41.8956 35.3945L42.0183 35.2729L42.141 35.1513L42.2638 35.0297L42.3865 34.9081L42.5092 34.7865L42.6319 34.665L42.7546 34.5434L42.8774 34.4218L43.0001 34.3002L43.0725 34.2285V40.7444L47.3677 45H53.7369L53.8596 44.8784L53.9823 44.7568L54.1051 44.6352L54.2278 44.5136L54.3505 44.3921L54.4732 44.2705L54.5959 44.1489L54.7187 44.0273L54.8414 43.9057L54.9641 43.7841L55.0868 43.6625L55.2095 43.5409L55.3323 43.4193L55.455 43.2978L55.5777 43.1762L55.7004 43.0546L55.8232 42.933L55.9459 42.8114L56.0686 42.6898L56.1913 42.5682L56.314 42.4466L56.4368 42.325L56.5595 42.2035L56.6822 42.0819L56.8049 41.9603L56.9276 41.8387L57.0504 41.7171L57.1731 41.5955L57.2958 41.4739L57.4185 41.3523L57.5412 41.2307L57.664 41.1092L57.7867 40.9876L57.9094 40.866L58.0321 40.7444L58.1548 40.6228L58.2776 40.5012L58.4003 40.3796L58.523 40.258L58.6457 40.1365L58.7684 40.0149L58.8912 39.8933L59.0139 39.7717L59.1366 39.6501L59.2593 39.5285L59.382 39.4069L59.5048 39.2853L59.6275 39.1637L59.7502 39.0422L59.8729 38.9206L59.9957 38.799L60.1184 38.6774L60.2411 38.5558L60.3638 38.4342L60.4865 38.3126L60.6093 38.191L60.732 38.0694L60.8547 37.9479L60.9774 37.8263L61.1001 37.7047L61.2229 37.5831L61.3456 37.4615L61.4683 37.3399L61.591 37.2183L61.7137 37.0967L61.8365 36.9751L61.9592 36.8536L62.0819 36.732L62.2046 36.6104L62.3273 36.4888L62.4501 36.3672L62.5728 36.2456L62.6955 36.124L62.8182 36.0024L62.9409 35.8808L63.0637 35.7593L63.1864 35.6377L63.3091 35.5161L63.4318 35.3945L63.5546 35.2729L63.6773 35.1513L63.8 35.0297L63.9227 34.9081L64.0454 34.7865L64.1682 34.665L64.2909 34.5434L64.4136 34.4218L64.5363 34.3002L64.659 34.1786L64.7818 34.057L64.9045 33.9354L65.0272 33.8138L65.1499 33.6922L65.2726 33.5707L65.3954 33.4491L65.5181 33.3275L65.6408 33.2059L65.7635 33.0843L65.8862 32.9627L66.009 32.8411L66.1317 32.7195L66.2544 32.5979L66.3771 32.4764L66.4998 32.3548L66.6226 32.2332L66.7453 32.1116L66.868 31.99L66.9907 31.8684L67.1134 31.7468L67.2362 31.6252L67.3589 31.5036L67.4816 31.3821L67.6043 31.2605L67.7271 31.1389L67.8498 31.0173L67.9725 30.8957L68.0952 30.7741L68.2179 30.6525L68.3407 30.5309L68.4634 30.4093L68.5861 30.2878L68.7088 30.1662L68.8315 30.0446L68.9543 29.923L69.077 29.8014L69.1997 29.6798L69.3224 29.5582L69.4451 29.4366L69.5679 29.3151L69.6906 29.1935L69.8133 29.0719L69.936 28.9503L70.0587 28.8287L70.1815 28.7071L70.3042 28.5855V25.9592L70.4269 25.8376L70.5496 25.716L70.6723 25.5944L70.7951 25.4728L70.9178 25.3513L71.0405 25.2297L71.1632 25.1081L71.2859 24.9865L71.4087 24.8649L71.5314 24.7433L71.6541 24.6217L71.7768 24.5001L71.8996 24.3785L72.0223 24.257L72.145 24.1354L72.2677 24.0138L72.3904 23.8922L72.5132 23.7706L72.6359 23.649L72.7586 23.5274L72.8813 23.4058L73.004 23.2842L73.1268 23.1627L73.2495 23.0411L73.3722 22.9195L73.4949 22.7979L73.6176 22.6763L73.7404 22.5547L73.8631 22.4331L73.9858 22.3115L74.1085 22.1899L74.2312 22.0684L74.354 21.9468L74.4767 21.8252L74.5994 21.7036L74.7221 21.582L74.8448 21.4604L74.9676 21.3388L75.0903 21.2172L75.213 21.0956L75.3357 20.9741L75.4585 20.8525L75.5812 20.7309L75.7039 20.6093L75.8266 20.4877L75.9493 20.3661L76.0721 20.2445L76.1948 20.1229L76.3175 20.0014L76.4402 19.8798L76.5629 19.7582L76.6857 19.6366L76.8084 19.515L76.9311 19.3934L77.0538 19.2718L77.1765 19.1502L77.2993 19.0286V13.6666L75.6057 11.9887L75.6671 11.9279L75.7898 11.8063L75.9125 11.6847L76.0352 11.5631L76.158 11.4415L76.2807 11.3199L76.4034 11.1983L76.5261 11.0767L76.6488 10.9551L76.7716 10.8336L76.8943 10.712L77.017 10.5904L77.1397 10.4688L77.2624 10.3472L77.3852 10.2256L77.5079 10.104L77.6306 9.98244L77.7533 9.86085L77.8761 9.73926L77.9988 9.61767V4.25561L73.7048 0ZM52.1685 8.51121V9.61767H44.4739V13.6666H51.469V19.0286H44.4739V28.5855H38.1048V4.25561H52.1685V8.51121ZM26.3358 4.25561H30.6311V9.61767H22.9365V13.6666H29.9316V19.0286H22.9365V28.5855H16.5673V4.25561H26.3358ZM73.0053 19.0286H66.0102V28.5855H59.641V4.25561H73.7048V9.61767H66.0102V13.6666H73.0053V19.0286Z" fill="white"/>
</g>
<defs>
<clipPath id="clip0_113_231">
<rect width="78" height="45" fill="white"/>
</clipPath>
</defs>
</svg>
