<svg width="43" height="43" viewBox="0 0 43 43" fill="none" xmlns="http://www.w3.org/2000/svg">
<path d="M21.0567 3.50945C18.7524 3.50945 16.4706 3.96332 14.3417 4.84514C12.2128 5.72697 10.2784 7.01949 8.64897 8.64889C5.35824 11.9396 3.50952 16.4028 3.50952 21.0566C3.50952 28.8125 8.54556 35.3927 15.5118 37.7264C16.3891 37.8668 16.6699 37.3228 16.6699 36.8491V33.8836C11.8093 34.9364 10.7741 31.5323 10.7741 31.5323C9.96688 29.4968 8.82631 28.9528 8.82631 28.9528C7.22952 27.8649 8.94914 27.9 8.94914 27.9C10.7039 28.0228 11.6339 29.7074 11.6339 29.7074C13.1605 32.3745 15.7399 31.5849 16.7401 31.1638C16.898 30.0232 17.3542 29.2511 17.8456 28.8125C13.9501 28.3738 9.8616 26.8647 9.8616 20.1793C9.8616 18.2315 10.5284 16.6698 11.669 15.424C11.4935 14.9853 10.8793 13.1604 11.8444 10.7915C11.8444 10.7915 13.3184 10.3177 16.6699 12.5813C18.0561 12.1953 19.5652 12.0023 21.0567 12.0023C22.5482 12.0023 24.0573 12.1953 25.4435 12.5813C28.795 10.3177 30.269 10.7915 30.269 10.7915C31.2341 13.1604 30.6199 14.9853 30.4444 15.424C31.585 16.6698 32.2518 18.2315 32.2518 20.1793C32.2518 26.8823 28.1458 28.3562 24.2327 28.7949C24.8644 29.3389 25.4435 30.4093 25.4435 32.0411V36.8491C25.4435 37.3228 25.7242 37.8843 26.6191 37.7264C33.5854 35.3751 38.6039 28.8125 38.6039 21.0566C38.6039 18.7523 38.15 16.4705 37.2682 14.3416C36.3863 12.2127 35.0938 10.2783 33.4644 8.64889C31.835 7.01949 29.9006 5.72697 27.7717 4.84514C25.6428 3.96332 23.361 3.50945 21.0567 3.50945Z" fill="#F7F7F9"/>
</svg>
