<svg width="36" height="36" viewBox="0 0 36 36" fill="none" xmlns="http://www.w3.org/2000/svg">
<path fill-rule="evenodd" clip-rule="evenodd" d="M32.5525 0H2.64545C1.21493 0 0 1.13137 0 2.52512V32.5676C0 33.963 0.797143 35.0943 2.22766 35.0943H32.1347C33.5669 35.0943 35.0943 33.963 35.0943 32.5676V2.52512C35.0943 1.13137 33.9847 0 32.5525 0ZM13.3693 13.3693H18.0936V15.7774H18.1454C18.8657 14.4789 20.9931 13.1604 23.6235 13.1604C28.6721 13.1604 30.0809 15.8409 30.0809 20.8059V30.0809H25.0674V21.7201C25.0674 19.4974 24.18 17.5472 22.1044 17.5472C19.5843 17.5472 18.3827 19.2534 18.3827 22.0543V30.0809H13.3693V13.3693ZM5.01348 30.0809H10.027V13.3693H5.01348V30.0809ZM10.6536 7.52022C10.6538 7.93164 10.573 8.33908 10.4157 8.71925C10.2584 9.09942 10.0277 9.44489 9.73692 9.73592C9.4461 10.0269 9.10081 10.2578 8.72075 10.4154C8.34069 10.573 7.93331 10.6541 7.52189 10.6542C7.11046 10.6543 6.70304 10.5734 6.3229 10.416C5.94275 10.2587 5.59733 10.028 5.30636 9.7371C5.01538 9.44623 4.78456 9.10088 4.62707 8.72079C4.46957 8.34071 4.3885 7.93331 4.38846 7.52189C4.3884 6.69118 4.71829 5.89445 5.30559 5.30695C5.89289 4.71945 6.6895 4.38928 7.52022 4.38905C8.35093 4.38883 9.14771 4.71858 9.73533 5.30577C10.3229 5.89296 10.6533 6.6895 10.6536 7.52022Z" fill="#F7F7F9"/>
</svg>
