<svg width="174" height="21" viewBox="0 0 174 21" fill="none" xmlns="http://www.w3.org/2000/svg">
<path d="M1.4782 13.2734V10.4082L10.654 6.68164V9.72266L4.83562 11.7793V11.9023L10.654 13.959V17L1.4782 13.2734ZM162.282 3.67578L158.186 18.916H155.655L159.751 3.67578H162.282ZM172.504 13.1328L163.557 16.9297V14.1523L169.41 11.9375V11.8145L163.557 9.59961V6.82227L172.504 10.6191V13.1328Z" fill="#1D5CE7"/>
<path d="M14.8221 17V4.27344H17.8104V9.40625H22.9256V4.27344H25.9139V17H22.9256V11.8496H17.8104V17H14.8221ZM39.423 10.6367C39.423 14.8379 36.7863 17.1758 33.3762 17.1758C29.9484 17.1758 27.3293 14.8203 27.3293 10.6367C27.3293 6.43555 29.9484 4.09766 33.3762 4.09766C36.7863 4.09766 39.423 6.43555 39.423 10.6367ZM36.3645 10.6367C36.3645 8.10547 35.2395 6.73438 33.3762 6.73438C31.5129 6.73438 30.3879 8.10547 30.3879 10.6367C30.3879 13.168 31.5129 14.5391 33.3762 14.5391C35.2395 14.5391 36.3645 13.168 36.3645 10.6367ZM51.6314 4.27344V17H49.0826L43.9146 9.5293H43.8267V17H40.8384V4.27344H43.4224L48.5377 11.7441H48.6431V4.27344H51.6314ZM61.5722 8.42188C61.2734 7.34961 60.412 6.73438 59.164 6.73438C57.3007 6.73438 56.1054 8.14062 56.1054 10.6191C56.1054 13.1152 57.2304 14.5391 59.164 14.5391C60.8603 14.5391 61.8183 13.6514 61.8534 12.2715H59.287V10.0742H64.7362V11.7441C64.7362 15.1367 62.3984 17.1758 59.1464 17.1758C55.5077 17.1758 53.0468 14.6797 53.0468 10.6543C53.0468 6.48828 55.7187 4.09766 59.0937 4.09766C62.0292 4.09766 64.2968 5.89062 64.6132 8.42188H61.5722ZM73.0598 8.05273C72.9895 7.12109 72.304 6.57617 71.0735 6.57617C69.8606 6.57617 69.2454 7.10352 69.2278 7.82422C69.2102 8.61523 69.9837 9.00195 71.1263 9.24805L72.2337 9.51172C74.677 10.0566 76.1009 11.2695 76.1184 13.3086C76.1009 15.7168 74.2376 17.1758 71.0735 17.1758C67.9095 17.1758 65.8528 15.7344 65.8001 12.8164H68.6829C68.7532 14.0469 69.6673 14.6797 71.0384 14.6797C72.304 14.6797 73.0598 14.1172 73.0774 13.3086C73.0598 12.5703 72.4095 12.1836 71.0032 11.8672L69.6673 11.5508C67.47 11.041 66.1341 9.95117 66.1341 8.03516C66.1165 5.67969 68.2083 4.09766 71.0911 4.09766C74.0266 4.09766 75.9075 5.69727 75.9427 8.05273H73.0598ZM80.2936 4.27344V17H77.3053V4.27344H80.2936ZM92.6602 4.27344V17H90.1113L84.9434 9.5293H84.8555V17H81.8672V4.27344H84.4512L89.5664 11.7441H89.6719V4.27344H92.6602ZM101.951 4.27344H104.956V12.4824C104.956 15.3301 102.794 17.1758 99.5951 17.1758C96.3783 17.1758 94.2337 15.3301 94.2337 12.4824V4.27344H97.222V12.2363C97.222 13.5898 98.1888 14.5566 99.5951 14.5566C101.001 14.5566 101.951 13.5898 101.951 12.2363V4.27344ZM114.897 8.42188C114.598 7.34961 113.737 6.73438 112.489 6.73438C110.626 6.73438 109.43 8.14062 109.43 10.6191C109.43 13.1152 110.555 14.5391 112.489 14.5391C114.185 14.5391 115.143 13.6514 115.178 12.2715H112.612V10.0742H118.061V11.7441C118.061 15.1367 115.723 17.1758 112.471 17.1758C108.833 17.1758 106.372 14.6797 106.372 10.6543C106.372 6.48828 109.044 4.09766 112.419 4.09766C115.354 4.09766 117.622 5.89062 117.938 8.42188H114.897ZM127.879 8.42188C127.58 7.34961 126.719 6.73438 125.471 6.73438C123.607 6.73438 122.412 8.14062 122.412 10.6191C122.412 13.1152 123.537 14.5391 125.471 14.5391C127.167 14.5391 128.125 13.6514 128.16 12.2715H125.594V10.0742H131.043V11.7441C131.043 15.1367 128.705 17.1758 125.453 17.1758C121.815 17.1758 119.354 14.6797 119.354 10.6543C119.354 6.48828 122.025 4.09766 125.4 4.09766C128.336 4.09766 130.604 5.89062 130.92 8.42188H127.879ZM132.494 17V4.27344H141.3V6.7168H135.482V9.40625H140.843V11.8496H135.482V14.5566H141.318V17H132.494ZM142.417 6.7168V4.27344H153.122V6.7168H149.255V17H146.284V6.7168H142.417Z" fill="#F7F7F9"/>
</svg>
