<svg width="34" height="34" viewBox="0 0 34 34" fill="none" xmlns="http://www.w3.org/2000/svg">
<path d="M17 0C7.61111 0 0 7.61111 0 17C0 26.3889 7.61111 34 17 34C26.3889 34 34 26.3889 34 17C34 7.61111 26.3889 0 17 0ZM9.64519 14.1815C9.06544 14.1816 8.49866 14.0098 8.01655 13.6879C7.53443 13.3659 7.15863 12.9081 6.93666 12.3726C6.7147 11.837 6.65655 11.2476 6.76956 10.679C6.88258 10.1104 7.16168 9.58802 7.57157 9.17802C7.98147 8.76803 8.50374 8.48879 9.07234 8.37563C9.64094 8.26248 10.2303 8.32048 10.766 8.54231C11.3016 8.76413 11.7594 9.13982 12.0815 9.62186C12.4036 10.1039 12.5756 10.6706 12.5756 11.2504C12.5754 12.0276 12.2666 12.7729 11.7171 13.3225C11.1676 13.8721 10.4224 14.1811 9.64519 14.1815ZM17 28.8889C16.4204 28.8889 15.8539 28.717 15.372 28.395C14.8901 28.073 14.5145 27.6154 14.2927 27.0799C14.0709 26.5445 14.0129 25.9553 14.1259 25.3868C14.239 24.8184 14.5181 24.2963 14.9279 23.8864C15.3377 23.4766 15.8599 23.1975 16.4283 23.0845C16.9967 22.9714 17.5859 23.0294 18.1214 23.2512C18.6569 23.473 19.1145 23.8486 19.4365 24.3305C19.7585 24.8124 19.9304 25.3789 19.9304 25.9585C19.9304 26.7357 19.6216 27.4811 19.0721 28.0306C18.5225 28.5802 17.7772 28.8889 17 28.8889ZM17 21.5341C16.4204 21.5341 15.8539 21.3622 15.372 21.0402C14.8901 20.7182 14.5145 20.2606 14.2927 19.7251C14.0709 19.1897 14.0129 18.6005 14.1259 18.032C14.239 17.4636 14.5181 16.9414 14.9279 16.5316C15.3377 16.1218 15.8599 15.8427 16.4283 15.7296C16.9967 15.6166 17.5859 15.6746 18.1214 15.8964C18.6569 16.1182 19.1145 16.4938 19.4365 16.9757C19.7585 17.4576 19.9304 18.0241 19.9304 18.6037C19.9307 18.9887 19.8551 19.37 19.7079 19.7258C19.5608 20.0816 19.345 20.4049 19.0729 20.6772C18.8007 20.9496 18.4776 21.1656 18.1219 21.313C17.7662 21.4604 17.385 21.5363 17 21.5363V21.5341ZM17 14.1793C16.4202 14.1794 15.8535 14.0076 15.3714 13.6856C14.8892 13.3637 14.5134 12.9059 14.2915 12.3703C14.0695 11.8348 14.0114 11.2454 14.1244 10.6768C14.2374 10.1081 14.5165 9.5858 14.9264 9.1758C15.3363 8.7658 15.8586 8.48657 16.4272 8.37341C16.9958 8.26025 17.5851 8.31826 18.1208 8.54008C18.6564 8.76191 19.1142 9.1376 19.4363 9.61963C19.7584 10.1017 19.9304 10.6684 19.9304 11.2481C19.9307 11.6332 19.8551 12.0145 19.708 12.3703C19.5608 12.7262 19.345 13.0495 19.0729 13.3219C18.8008 13.5943 18.4777 13.8105 18.122 13.9579C17.7663 14.1054 17.385 14.1814 17 14.1815V14.1793ZM24.3548 14.1793C23.7751 14.1793 23.2084 14.0074 22.7264 13.6853C22.2444 13.3632 21.8687 12.9054 21.6468 12.3698C21.425 11.8342 21.3669 11.2449 21.48 10.6763C21.5931 10.1077 21.8723 9.58546 22.2822 9.17554C22.6921 8.76562 23.2144 8.48645 23.783 8.37336C24.3516 8.26026 24.9409 8.31831 25.4765 8.54015C26.0121 8.762 26.4699 9.13769 26.7919 9.61971C27.114 10.1017 27.2859 10.6684 27.2859 11.2481C27.2862 11.6333 27.2106 12.0146 27.0634 12.3705C26.9163 12.7264 26.7004 13.0498 26.4282 13.3222C26.156 13.5946 25.8328 13.8107 25.477 13.9582C25.1213 14.1056 24.7399 14.1815 24.3548 14.1815V14.1793Z" fill="white"/>
</svg>
