<svg width="133" height="32" viewBox="0 0 133 32" fill="none" xmlns="http://www.w3.org/2000/svg">
<path d="M109.627 8.36279H93.8455L90.0131 10.5809L87.7922 14.4471V24.9724L90.0131 28.8339L93.8455 31.0567H109.627L113.455 28.8339L115.676 24.9724V14.4471L113.455 10.5809L109.627 8.36279ZM107.406 22.0703L105.888 24.6114L103.255 26.0791H100.218L97.5895 24.6114L96.0713 22.0703V17.3397L97.5895 14.7986L100.218 13.3309H103.255L105.888 14.7986L107.406 17.3397V22.0703Z" fill="white"/>
<path d="M126.981 10.2545H133V5.30538H126.981L126.121 4.47419V0L117.263 1.81912V4.46944L116.398 5.30538H114.374V10.2545H114.781H115.494H116.526L117.096 9.13361L117.783 9.38534L117.263 10.7295V11.4514V13.2706V24.9738L119.474 28.821L123.866 31.0486L132.519 30.5499V26.0852H130.273L127.64 24.6175L126.121 22.0717V11.0857L126.981 10.2545Z" fill="white"/>
<path d="M12.6863 25.8039L10.3132 24.4788L8.94724 22.1894V8.93311H0V25.1675L2.23067 28.9007L6.07784 31.0476L17.3737 30.5203L18.7298 29.9124L19.7714 27.8748L21.5844 28.5492L20.9359 30.2259L21.0882 30.5156H28.5024V8.93311H19.1621V22.1894L17.7913 24.4788L15.4231 25.8039H12.6863Z" fill="white"/>
<path d="M35.2139 30.9822L31.3373 27.3725C36.7666 21.7108 41.4146 15.0091 41.3753 12.9667C40.2305 12.5867 35.1796 14.8428 30.4922 18.6948L28.4433 20.3762L24.9548 16.4102L27.0037 14.7241C30.0303 12.2353 40.2944 4.4933 45.3355 9.36646C46.2494 10.2499 46.6719 11.3138 46.7358 12.4822L50.9957 8.36428L54.8035 12.0453L35.2139 30.9822Z" fill="white"/>
<path d="M44.9821 31.6267C43.4147 31.6267 41.9702 31.1754 40.8057 30.0498C39.8918 29.1663 39.4693 28.1024 39.4054 26.934L35.1455 31.0519L31.3376 27.371L50.996 8.36279L54.8039 12.0438C49.4041 17.6721 44.7757 24.3312 44.7659 26.4163C45.2523 26.497 46.8491 26.3688 50.0674 24.5449C53.04 22.8635 55.6195 20.7452 55.6441 20.7262L57.6929 19.04L61.1814 23.006L59.1326 24.6921C56.8085 26.6063 50.2001 31.6267 44.9772 31.6267" fill="white"/>
<path d="M77.2531 1.93457V8.31337L77.2678 8.34187L77.2531 8.36562L78.0294 10.465L77.3415 10.7215L76.4276 8.89758L74.3886 8.36562H63.6922L59.8598 10.5837L57.6389 14.4499V24.9752L59.8598 28.8414L63.6774 31.0548L75.0666 30.5276L76.4276 29.9196L76.4473 29.8864L77.3563 28.1005L78.0294 28.3522L77.5086 29.6916L77.9557 30.5228H86.1954V1.93457H77.2531ZM73.1013 26.0866H70.0648L67.4362 24.619L65.9179 22.0779V17.3472L67.4362 14.8062L70.0648 13.3385H73.1013L75.7299 14.8062L77.2482 17.3472V22.0779L75.7299 24.619L73.1013 26.0866Z" fill="white"/>
<path d="M109.627 8.36279H93.8455L90.0131 10.5809L87.7922 14.4471V24.9724L90.0131 28.8339L93.8455 31.0567H109.627L113.455 28.8339L115.676 24.9724V14.4471L113.455 10.5809L109.627 8.36279ZM107.406 22.0703L105.888 24.6114L103.255 26.0791H100.218L97.5895 24.6114L96.0713 22.0703V17.3397L97.5895 14.7986L100.218 13.3309H103.255L105.888 14.7986L107.406 17.3397V22.0703Z" fill="white"/>
<path d="M126.981 10.2545H133V5.30538H126.981L126.121 4.47419V0L117.263 1.81912V4.46944L116.398 5.30538H114.374V10.2545H114.781H115.494H116.526L117.096 9.13361L117.783 9.38534L117.263 10.7295V11.4514V13.2706V24.9738L119.474 28.821L123.866 31.0486L132.519 30.5499V26.0852H130.273L127.64 24.6175L126.121 22.0717V11.0857L126.981 10.2545Z" fill="white"/>
<path d="M12.6863 25.8039L10.3132 24.4788L8.94724 22.1894V8.93311H0V25.1675L2.23067 28.9007L6.07784 31.0476L17.3737 30.5203L18.7298 29.9124L19.7714 27.8748L21.5844 28.5492L20.9359 30.2259L21.0882 30.5156H28.5024V8.93311H19.1621V22.1894L17.7913 24.4788L15.4231 25.8039H12.6863Z" fill="white"/>
<path d="M35.2139 30.9822L31.3373 27.3725C36.7666 21.7108 41.4146 15.0091 41.3753 12.9667C40.2305 12.5867 35.1796 14.8428 30.4922 18.6948L28.4433 20.3762L24.9548 16.4102L27.0037 14.7241C30.0303 12.2353 40.2944 4.4933 45.3355 9.36646C46.2494 10.2499 46.6719 11.3138 46.7358 12.4822L50.9957 8.36428L54.8035 12.0453L35.2139 30.9822Z" fill="white"/>
<path d="M44.9821 31.6267C43.4147 31.6267 41.9702 31.1754 40.8057 30.0498C39.8918 29.1663 39.4693 28.1024 39.4054 26.934L35.1455 31.0519L31.3376 27.371L50.996 8.36279L54.8039 12.0438C49.4041 17.6721 44.7757 24.3312 44.7659 26.4163C45.2523 26.497 46.8491 26.3688 50.0674 24.5449C53.04 22.8635 55.6195 20.7452 55.6441 20.7262L57.6929 19.04L61.1814 23.006L59.1326 24.6921C56.8085 26.6063 50.2001 31.6267 44.9772 31.6267" fill="white"/>
<path d="M77.2531 1.93457V8.31337L77.2678 8.34187L77.2531 8.36562L78.0294 10.465L77.3415 10.7215L76.4276 8.89758L74.3886 8.36562H63.6922L59.8598 10.5837L57.6389 14.4499V24.9752L59.8598 28.8414L63.6774 31.0548L75.0666 30.5276L76.4276 29.9196L76.4473 29.8864L77.3563 28.1005L78.0294 28.3522L77.5086 29.6916L77.9557 30.5228H86.1954V1.93457H77.2531ZM73.1013 26.0866H70.0648L67.4362 24.619L65.9179 22.0779V17.3472L67.4362 14.8062L70.0648 13.3385H73.1013L75.7299 14.8062L77.2482 17.3472V22.0779L75.7299 24.619L73.1013 26.0866Z" fill="white"/>
</svg>
